<mxfile host="app.diagrams.net" agent="Mozilla/5.0 (X11; Linux x86_64) AppleWebKit/537.36 (KHTML, like Gecko) Chrome/131.0.0.0 Safari/537.36" version="26.0.4">
  <diagram id="NVJP7_lWu015RYrUQCLK" name="Page-1">
    <mxGraphModel dx="2087" dy="1981" grid="1" gridSize="10" guides="1" tooltips="1" connect="1" arrows="1" fold="1" page="1" pageScale="1" pageWidth="850" pageHeight="1100" math="0" shadow="0">
      <root>
        <mxCell id="0" />
        <mxCell id="1" parent="0" />
        <mxCell id="T5DUnzuHdZizvQZraZ2C-1" value="LLM" style="shape=umlLifeline;perimeter=lifelinePerimeter;whiteSpace=wrap;html=1;container=1;collapsible=0;recursiveResize=0;outlineConnect=0;rounded=1;shadow=0;comic=0;labelBackgroundColor=none;strokeWidth=1;fontFamily=Verdana;fontSize=12;align=center;" vertex="1" parent="1">
          <mxGeometry x="870" y="-660" width="100" height="670" as="geometry" />
        </mxCell>
        <mxCell id="T5DUnzuHdZizvQZraZ2C-2" value="server" style="shape=umlLifeline;perimeter=lifelinePerimeter;whiteSpace=wrap;html=1;container=1;collapsible=0;recursiveResize=0;outlineConnect=0;rounded=1;shadow=0;comic=0;labelBackgroundColor=none;strokeWidth=1;fontFamily=Verdana;fontSize=12;align=center;" vertex="1" parent="1">
          <mxGeometry x="430" y="-660" width="100" height="670" as="geometry" />
        </mxCell>
        <mxCell id="T5DUnzuHdZizvQZraZ2C-3" value="" style="html=1;points=[];perimeter=orthogonalPerimeter;rounded=0;shadow=0;comic=0;labelBackgroundColor=none;strokeWidth=1;fontFamily=Verdana;fontSize=12;align=center;" vertex="1" parent="T5DUnzuHdZizvQZraZ2C-2">
          <mxGeometry x="45" y="90" width="10" height="500" as="geometry" />
        </mxCell>
        <mxCell id="T5DUnzuHdZizvQZraZ2C-4" value="embedding model" style="shape=umlLifeline;perimeter=lifelinePerimeter;whiteSpace=wrap;html=1;container=1;collapsible=0;recursiveResize=0;outlineConnect=0;rounded=1;shadow=0;comic=0;labelBackgroundColor=none;strokeWidth=1;fontFamily=Verdana;fontSize=12;align=center;" vertex="1" parent="1">
          <mxGeometry x="590" y="-660" width="100" height="670" as="geometry" />
        </mxCell>
        <mxCell id="T5DUnzuHdZizvQZraZ2C-5" value="update cache" style="html=1;verticalAlign=bottom;endArrow=block;labelBackgroundColor=none;fontFamily=Verdana;fontSize=12;edgeStyle=elbowEdgeStyle;elbow=vertical;" edge="1" parent="T5DUnzuHdZizvQZraZ2C-4" target="T5DUnzuHdZizvQZraZ2C-23">
          <mxGeometry relative="1" as="geometry">
            <mxPoint x="-104.5" y="560.17" as="sourcePoint" />
            <mxPoint x="325.0000000000002" y="560.0033333333334" as="targetPoint" />
          </mxGeometry>
        </mxCell>
        <mxCell id="T5DUnzuHdZizvQZraZ2C-6" value="update db" style="html=1;verticalAlign=bottom;endArrow=block;labelBackgroundColor=none;fontFamily=Verdana;fontSize=12;edgeStyle=elbowEdgeStyle;elbow=vertical;entryX=0.468;entryY=0.837;entryDx=0;entryDy=0;entryPerimeter=0;" edge="1" parent="T5DUnzuHdZizvQZraZ2C-4">
          <mxGeometry relative="1" as="geometry">
            <mxPoint x="-105" y="590" as="sourcePoint" />
            <mxPoint x="466.5" y="590.83" as="targetPoint" />
          </mxGeometry>
        </mxCell>
        <mxCell id="T5DUnzuHdZizvQZraZ2C-7" value="vector DB" style="shape=umlLifeline;perimeter=lifelinePerimeter;whiteSpace=wrap;html=1;container=1;collapsible=0;recursiveResize=0;outlineConnect=0;rounded=1;shadow=0;comic=0;labelBackgroundColor=none;strokeWidth=1;fontFamily=Verdana;fontSize=12;align=center;" vertex="1" parent="1">
          <mxGeometry x="730" y="-660" width="120" height="670" as="geometry" />
        </mxCell>
        <mxCell id="T5DUnzuHdZizvQZraZ2C-8" value="" style="html=1;points=[];perimeter=orthogonalPerimeter;rounded=0;shadow=0;comic=0;labelBackgroundColor=none;strokeWidth=1;fontFamily=Verdana;fontSize=12;align=center;" vertex="1" parent="T5DUnzuHdZizvQZraZ2C-7">
          <mxGeometry x="-95" y="310.16999999999996" width="10" height="40" as="geometry" />
        </mxCell>
        <mxCell id="T5DUnzuHdZizvQZraZ2C-9" value="return" style="html=1;verticalAlign=bottom;endArrow=open;dashed=1;endSize=8;labelBackgroundColor=none;fontFamily=Verdana;fontSize=12;" edge="1" parent="T5DUnzuHdZizvQZraZ2C-7">
          <mxGeometry relative="1" as="geometry">
            <mxPoint x="-240" y="392" as="targetPoint" />
            <mxPoint x="40" y="392" as="sourcePoint" />
          </mxGeometry>
        </mxCell>
        <mxCell id="T5DUnzuHdZizvQZraZ2C-10" value="" style="html=1;points=[];perimeter=orthogonalPerimeter;rounded=0;shadow=0;comic=0;labelBackgroundColor=none;strokeWidth=1;fontFamily=Verdana;fontSize=12;align=center;" vertex="1" parent="T5DUnzuHdZizvQZraZ2C-7">
          <mxGeometry x="45" y="330.16999999999996" width="10" height="60" as="geometry" />
        </mxCell>
        <mxCell id="T5DUnzuHdZizvQZraZ2C-11" value="embed the question" style="html=1;verticalAlign=bottom;endArrow=block;entryX=0;entryY=0;labelBackgroundColor=none;fontFamily=Verdana;fontSize=12;edgeStyle=elbowEdgeStyle;elbow=vertical;" edge="1" parent="T5DUnzuHdZizvQZraZ2C-7" target="T5DUnzuHdZizvQZraZ2C-8">
          <mxGeometry relative="1" as="geometry">
            <mxPoint x="-245" y="310.00333333333333" as="sourcePoint" />
            <Array as="points">
              <mxPoint x="-235" y="310" />
            </Array>
          </mxGeometry>
        </mxCell>
        <mxCell id="T5DUnzuHdZizvQZraZ2C-12" value="quary" style="html=1;verticalAlign=bottom;endArrow=block;labelBackgroundColor=none;fontFamily=Verdana;fontSize=12;edgeStyle=elbowEdgeStyle;elbow=vertical;exitX=1;exitY=0.519;exitDx=0;exitDy=0;exitPerimeter=0;" edge="1" parent="T5DUnzuHdZizvQZraZ2C-7" source="T5DUnzuHdZizvQZraZ2C-8">
          <mxGeometry relative="1" as="geometry">
            <mxPoint x="-60" y="289.66999999999996" as="sourcePoint" />
            <mxPoint x="49.50000000000023" y="330.8366666666667" as="targetPoint" />
          </mxGeometry>
        </mxCell>
        <mxCell id="T5DUnzuHdZizvQZraZ2C-13" value="return" style="html=1;verticalAlign=bottom;endArrow=open;dashed=1;endSize=8;labelBackgroundColor=none;fontFamily=Verdana;fontSize=12;edgeStyle=elbowEdgeStyle;elbow=vertical;" edge="1" parent="T5DUnzuHdZizvQZraZ2C-7">
          <mxGeometry relative="1" as="geometry">
            <mxPoint x="-240" y="530" as="targetPoint" />
            <Array as="points">
              <mxPoint x="73.5" y="530" />
            </Array>
            <mxPoint x="195" y="530" as="sourcePoint" />
          </mxGeometry>
        </mxCell>
        <mxCell id="T5DUnzuHdZizvQZraZ2C-14" value="ask the LLM" style="html=1;verticalAlign=bottom;endArrow=block;labelBackgroundColor=none;fontFamily=Verdana;fontSize=12;edgeStyle=elbowEdgeStyle;elbow=vertical;" edge="1" parent="T5DUnzuHdZizvQZraZ2C-7">
          <mxGeometry relative="1" as="geometry">
            <mxPoint x="-240" y="500" as="sourcePoint" />
            <mxPoint x="189.50000000000023" y="499.8333333333335" as="targetPoint" />
          </mxGeometry>
        </mxCell>
        <mxCell id="T5DUnzuHdZizvQZraZ2C-15" value="" style="html=1;points=[];perimeter=orthogonalPerimeter;rounded=0;shadow=0;comic=0;labelBackgroundColor=none;strokeWidth=1;fontFamily=Verdana;fontSize=12;align=center;" vertex="1" parent="T5DUnzuHdZizvQZraZ2C-7">
          <mxGeometry x="185" y="490" width="10" height="40" as="geometry" />
        </mxCell>
        <mxCell id="T5DUnzuHdZizvQZraZ2C-16" value="relational DB" style="shape=umlLifeline;perimeter=lifelinePerimeter;whiteSpace=wrap;html=1;container=1;collapsible=0;recursiveResize=0;outlineConnect=0;rounded=1;shadow=0;comic=0;labelBackgroundColor=none;strokeWidth=1;fontFamily=Verdana;fontSize=12;align=center;" vertex="1" parent="1">
          <mxGeometry x="1010" y="-660" width="100" height="670" as="geometry" />
        </mxCell>
        <mxCell id="T5DUnzuHdZizvQZraZ2C-17" value="" style="html=1;verticalAlign=bottom;endArrow=open;dashed=1;endSize=8;labelBackgroundColor=none;fontFamily=Verdana;fontSize=12;" edge="1" parent="T5DUnzuHdZizvQZraZ2C-16">
          <mxGeometry relative="1" as="geometry">
            <mxPoint x="-527" y="150" as="targetPoint" />
            <mxPoint x="185" y="150" as="sourcePoint" />
          </mxGeometry>
        </mxCell>
        <mxCell id="T5DUnzuHdZizvQZraZ2C-18" value="return {session : logs}" style="edgeLabel;html=1;align=center;verticalAlign=middle;resizable=0;points=[];fontSize=12;" vertex="1" connectable="0" parent="T5DUnzuHdZizvQZraZ2C-17">
          <mxGeometry x="0.0033" y="-3" relative="1" as="geometry">
            <mxPoint x="-6" y="-7" as="offset" />
          </mxGeometry>
        </mxCell>
        <mxCell id="T5DUnzuHdZizvQZraZ2C-19" value="User Interface" style="shape=umlLifeline;perimeter=lifelinePerimeter;whiteSpace=wrap;html=1;container=1;collapsible=0;recursiveResize=0;outlineConnect=0;rounded=1;shadow=0;comic=0;labelBackgroundColor=none;strokeWidth=1;fontFamily=Verdana;fontSize=12;align=center;" vertex="1" parent="1">
          <mxGeometry x="290" y="-660" width="100" height="670" as="geometry" />
        </mxCell>
        <mxCell id="T5DUnzuHdZizvQZraZ2C-20" value="" style="html=1;points=[];perimeter=orthogonalPerimeter;rounded=0;shadow=0;comic=0;labelBackgroundColor=none;strokeWidth=1;fontFamily=Verdana;fontSize=12;align=center;" vertex="1" parent="T5DUnzuHdZizvQZraZ2C-19">
          <mxGeometry x="45" y="80" width="10" height="480" as="geometry" />
        </mxCell>
        <mxCell id="T5DUnzuHdZizvQZraZ2C-21" value="ask question" style="html=1;verticalAlign=bottom;endArrow=block;entryX=0;entryY=0;labelBackgroundColor=none;fontFamily=Verdana;fontSize=12;edgeStyle=elbowEdgeStyle;elbow=vertical;" edge="1" parent="1" source="T5DUnzuHdZizvQZraZ2C-20" target="T5DUnzuHdZizvQZraZ2C-3">
          <mxGeometry relative="1" as="geometry">
            <mxPoint x="410" y="-550" as="sourcePoint" />
          </mxGeometry>
        </mxCell>
        <mxCell id="T5DUnzuHdZizvQZraZ2C-22" value="return" style="html=1;verticalAlign=bottom;endArrow=open;dashed=1;endSize=8;labelBackgroundColor=none;fontFamily=Verdana;fontSize=12;" edge="1" parent="1">
          <mxGeometry relative="1" as="geometry">
            <mxPoint x="350" y="-110" as="targetPoint" />
            <mxPoint x="480" y="-110" as="sourcePoint" />
          </mxGeometry>
        </mxCell>
        <mxCell id="T5DUnzuHdZizvQZraZ2C-23" value="cache" style="shape=umlLifeline;perimeter=lifelinePerimeter;whiteSpace=wrap;html=1;container=1;collapsible=0;recursiveResize=0;outlineConnect=0;rounded=1;shadow=0;comic=0;labelBackgroundColor=none;strokeWidth=1;fontFamily=Verdana;fontSize=12;align=center;" vertex="1" parent="1">
          <mxGeometry x="1150" y="-660" width="100" height="670" as="geometry" />
        </mxCell>
        <mxCell id="T5DUnzuHdZizvQZraZ2C-24" value="" style="html=1;points=[];perimeter=orthogonalPerimeter;rounded=0;shadow=0;comic=0;labelBackgroundColor=none;strokeWidth=1;fontFamily=Verdana;fontSize=12;align=center;" vertex="1" parent="T5DUnzuHdZizvQZraZ2C-23">
          <mxGeometry x="45" y="110" width="10" height="40" as="geometry" />
        </mxCell>
        <mxCell id="T5DUnzuHdZizvQZraZ2C-25" value="" style="html=1;points=[];perimeter=orthogonalPerimeter;rounded=0;shadow=0;comic=0;labelBackgroundColor=none;strokeWidth=1;fontFamily=Verdana;fontSize=12;align=center;" vertex="1" parent="T5DUnzuHdZizvQZraZ2C-23">
          <mxGeometry x="45" y="200" width="10" height="40" as="geometry" />
        </mxCell>
        <mxCell id="T5DUnzuHdZizvQZraZ2C-26" value="get the user session" style="html=1;verticalAlign=bottom;endArrow=block;labelBackgroundColor=none;fontFamily=Verdana;fontSize=12;edgeStyle=elbowEdgeStyle;elbow=vertical;exitX=1.278;exitY=0.059;exitDx=0;exitDy=0;exitPerimeter=0;" edge="1" parent="1">
          <mxGeometry relative="1" as="geometry">
            <mxPoint x="487.7800000000002" y="-550" as="sourcePoint" />
            <mxPoint x="1199.5" y="-549.7033333333333" as="targetPoint" />
            <Array as="points" />
          </mxGeometry>
        </mxCell>
        <mxCell id="T5DUnzuHdZizvQZraZ2C-27" value="create a new session" style="html=1;verticalAlign=bottom;endArrow=block;labelBackgroundColor=none;fontFamily=Verdana;fontSize=12;edgeStyle=elbowEdgeStyle;elbow=vertical;" edge="1" parent="1" source="T5DUnzuHdZizvQZraZ2C-3">
          <mxGeometry relative="1" as="geometry">
            <mxPoint x="489" y="-459.83" as="sourcePoint" />
            <mxPoint x="1201" y="-459.83" as="targetPoint" />
          </mxGeometry>
        </mxCell>
        <mxCell id="T5DUnzuHdZizvQZraZ2C-28" value="" style="group" vertex="1" connectable="0" parent="1">
          <mxGeometry x="140" y="-530" width="1145" height="150" as="geometry" />
        </mxCell>
        <mxCell id="T5DUnzuHdZizvQZraZ2C-29" value="[user has a session]" style="text;html=1;align=center;verticalAlign=middle;resizable=0;points=[];autosize=1;strokeColor=none;fillColor=none;" vertex="1" parent="T5DUnzuHdZizvQZraZ2C-28">
          <mxGeometry x="52.16683549671368" y="19.99857142857138" width="130" height="30" as="geometry" />
        </mxCell>
        <mxCell id="T5DUnzuHdZizvQZraZ2C-30" value="" style="group" vertex="1" connectable="0" parent="T5DUnzuHdZizvQZraZ2C-28">
          <mxGeometry width="1145" height="150" as="geometry" />
        </mxCell>
        <mxCell id="T5DUnzuHdZizvQZraZ2C-31" value="condition" style="shape=umlFrame;whiteSpace=wrap;html=1;pointerEvents=0;strokeWidth=2;" vertex="1" parent="T5DUnzuHdZizvQZraZ2C-30">
          <mxGeometry width="1145" height="150" as="geometry" />
        </mxCell>
        <mxCell id="T5DUnzuHdZizvQZraZ2C-32" value="[user dont have a session]" style="text;html=1;align=center;verticalAlign=middle;resizable=0;points=[];autosize=1;strokeColor=none;fillColor=none;" vertex="1" parent="T5DUnzuHdZizvQZraZ2C-30">
          <mxGeometry x="37.16683549671368" y="59.99857142857138" width="160" height="30" as="geometry" />
        </mxCell>
        <mxCell id="T5DUnzuHdZizvQZraZ2C-33" value="" style="endArrow=none;dashed=1;html=1;rounded=0;exitX=-0.002;exitY=0.335;exitDx=0;exitDy=0;exitPerimeter=0;entryX=1;entryY=0.341;entryDx=0;entryDy=0;entryPerimeter=0;strokeWidth=3;" edge="1" parent="T5DUnzuHdZizvQZraZ2C-30" source="T5DUnzuHdZizvQZraZ2C-31" target="T5DUnzuHdZizvQZraZ2C-31">
          <mxGeometry width="50" height="50" relative="1" as="geometry">
            <mxPoint x="-70.61674008810579" y="110" as="sourcePoint" />
            <mxPoint x="1150.044052863436" y="40" as="targetPoint" />
          </mxGeometry>
        </mxCell>
        <mxCell id="T5DUnzuHdZizvQZraZ2C-34" value="" style="html=1;verticalAlign=bottom;endArrow=open;dashed=1;endSize=8;labelBackgroundColor=none;fontFamily=Verdana;fontSize=12;" edge="1" parent="T5DUnzuHdZizvQZraZ2C-30">
          <mxGeometry relative="1" as="geometry">
            <mxPoint x="350" y="110" as="targetPoint" />
            <mxPoint x="1062" y="110" as="sourcePoint" />
          </mxGeometry>
        </mxCell>
        <mxCell id="T5DUnzuHdZizvQZraZ2C-35" value="return session&amp;nbsp;" style="edgeLabel;html=1;align=center;verticalAlign=middle;resizable=0;points=[];fontSize=12;" vertex="1" connectable="0" parent="T5DUnzuHdZizvQZraZ2C-34">
          <mxGeometry x="0.0033" y="-3" relative="1" as="geometry">
            <mxPoint x="-6" y="-7" as="offset" />
          </mxGeometry>
        </mxCell>
        <mxCell id="T5DUnzuHdZizvQZraZ2C-36" value="update the promte" style="html=1;verticalAlign=bottom;endArrow=block;labelBackgroundColor=none;fontFamily=Verdana;fontSize=12;elbow=vertical;edgeStyle=orthogonalEdgeStyle;curved=1;" edge="1" parent="1">
          <mxGeometry relative="1" as="geometry">
            <mxPoint x="485" y="-236" as="sourcePoint" />
            <mxPoint x="485" y="-200" as="targetPoint" />
            <Array as="points">
              <mxPoint x="551" y="-236" />
              <mxPoint x="551" y="-200" />
            </Array>
          </mxGeometry>
        </mxCell>
        <mxCell id="T5DUnzuHdZizvQZraZ2C-37" value="chat conversation" style="shape=umlFrame;whiteSpace=wrap;html=1;pointerEvents=0;width=130;height=30;" vertex="1" parent="1">
          <mxGeometry x="90" y="-690" width="1230" height="720" as="geometry" />
        </mxCell>
      </root>
    </mxGraphModel>
  </diagram>
</mxfile>
